<svg width="500" height="500" viewBox="0 0 500 500" role="img" xmlns="http://www.w3.org/2000/svg">
<title>Animated coding illustration</title>
<defs>
  <linearGradient id="screenGrad" x1="0" y1="0" x2="0" y2="1">
    <stop offset="0%" stop-color="#0d1117"/>
    <stop offset="100%" stop-color="#161b22"/>
  </linearGradient>
  <linearGradient id="deskGrad" x1="0" y1="0" x2="0" y2="1">
    <stop offset="0%" stop-color="#8B6F47"/>
    <stop offset="100%" stop-color="#6B4F2F"/>
  </linearGradient>
  <radialGradient id="screenGlow" cx="50%" cy="50%" r="50%">
    <stop offset="0%" stop-color="#A855F7" stop-opacity="0.25"/>
    <stop offset="100%" stop-color="#A855F7" stop-opacity="0"/>
  </radialGradient>
</defs>

<!-- Background -->
<rect width="500" height="500" fill="#0f0e17" rx="14"/>

<!-- Stars -->
<circle cx="40" cy="30" r="1.5" fill="#fff" opacity="0.6"><animate attributeName="opacity" values="0.6;0.1;0.6" dur="3s" repeatCount="indefinite"/></circle>
<circle cx="90" cy="15" r="1" fill="#fff" opacity="0.4"><animate attributeName="opacity" values="0.4;0.9;0.4" dur="2.2s" repeatCount="indefinite"/></circle>
<circle cx="430" cy="22" r="1.5" fill="#fff" opacity="0.5"><animate attributeName="opacity" values="0.5;0.1;0.5" dur="4s" repeatCount="indefinite"/></circle>
<circle cx="470" cy="45" r="1" fill="#fff" opacity="0.3"><animate attributeName="opacity" values="0.3;0.8;0.3" dur="2.7s" repeatCount="indefinite"/></circle>
<circle cx="20" cy="70" r="1" fill="#fff" opacity="0.5"><animate attributeName="opacity" values="0.5;0.1;0.5" dur="3.5s" repeatCount="indefinite"/></circle>
<circle cx="480" cy="65" r="1.5" fill="#fff" opacity="0.4"><animate attributeName="opacity" values="0.4;0.9;0.4" dur="1.8s" repeatCount="indefinite"/></circle>
<circle cx="65" cy="95" r="1" fill="#A855F7" opacity="0.7"><animate attributeName="opacity" values="0.7;0.2;0.7" dur="2.5s" repeatCount="indefinite"/></circle>
<circle cx="445" cy="88" r="1" fill="#A855F7" opacity="0.7"><animate attributeName="opacity" values="0.7;0.2;0.7" dur="3.1s" repeatCount="indefinite"/></circle>
<circle cx="250" cy="455" r="1.5" fill="#fff" opacity="0.4"><animate attributeName="opacity" values="0.4;0.8;0.4" dur="2.3s" repeatCount="indefinite"/></circle>
<circle cx="150" cy="470" r="1" fill="#A855F7" opacity="0.5"><animate attributeName="opacity" values="0.5;0.1;0.5" dur="3.8s" repeatCount="indefinite"/></circle>
<circle cx="370" cy="475" r="1" fill="#fff" opacity="0.3"><animate attributeName="opacity" values="0.3;0.7;0.3" dur="2.9s" repeatCount="indefinite"/></circle>

<!-- Floating badge top center -->
<g>
  <animateTransform attributeName="transform" type="translate" values="0,0;0,-5;0,0" dur="3s" repeatCount="indefinite" calcMode="spline" keySplines="0.45 0 0.55 1;0.45 0 0.55 1"/>
  <rect x="210" y="30" width="80" height="26" rx="13" fill="#A855F7" opacity="0.95"/>
  <text x="250" y="47" font-family="monospace" font-size="12" fill="white" text-anchor="middle" font-weight="bold">{ coding }</text>
</g>

<!-- Floating code snippet LEFT -->
<g>
  <animateTransform attributeName="transform" type="translate" values="0,0;0,-10;0,0" dur="4s" repeatCount="indefinite" calcMode="spline" keySplines="0.45 0 0.55 1;0.45 0 0.55 1"/>
  <rect x="14" y="78" width="138" height="76" rx="8" fill="#1a1a2e" stroke="#A855F7" stroke-width="1.2" opacity="0.92"/>
  <text x="26" y="100" font-family="monospace" font-size="11" fill="#A855F7">const dev = () => {</text>
  <text x="26" y="118" font-family="monospace" font-size="11" fill="#EC4899">  build(dreams);</text>
  <text x="26" y="136" font-family="monospace" font-size="11" fill="#A855F7">}</text>
  <circle cx="138" cy="87" r="5" fill="#EC4899" opacity="0.9"/>
</g>

<!-- Floating code snippet RIGHT -->
<g>
  <animateTransform attributeName="transform" type="translate" values="0,0;0,10;0,0" dur="4.5s" repeatCount="indefinite" calcMode="spline" keySplines="0.45 0 0.55 1;0.45 0 0.55 1"/>
  <rect x="348" y="70" width="138" height="68" rx="8" fill="#1a1a2e" stroke="#EC4899" stroke-width="1.2" opacity="0.92"/>
  <text x="362" y="92" font-family="monospace" font-size="11" fill="#60D394">&lt;App&gt;</text>
  <text x="362" y="110" font-family="monospace" font-size="11" fill="#F7DF1E">  &lt;Magic /&gt;</text>
  <text x="362" y="128" font-family="monospace" font-size="11" fill="#60D394">&lt;/App&gt;</text>
</g>

<!-- Screen glow -->
<ellipse cx="250" cy="270" rx="160" ry="110" fill="url(#screenGlow)">
  <animate attributeName="opacity" values="0.7;1;0.7" dur="3s" repeatCount="indefinite"/>
</ellipse>

<!-- Monitor stand -->
<rect x="230" y="388" width="40" height="20" rx="2" fill="#2d2d3a"/>
<rect x="206" y="406" width="88" height="9" rx="4" fill="#2d2d3a"/>

<!-- Monitor body -->
<rect x="90" y="148" width="320" height="240" rx="12" fill="#2d2d3a" stroke="#3d3d4a" stroke-width="1.5"/>
<!-- Screen -->
<rect x="102" y="160" width="296" height="218" rx="6" fill="url(#screenGrad)"/>

<!-- Tab bar -->
<rect x="102" y="160" width="296" height="22" rx="0" fill="#1e1e1e"/>
<rect x="102" y="160" width="296" height="22" rx="6" fill="#1e1e1e"/>
<rect x="108" y="164" width="72" height="14" rx="4" fill="#2d2d3a"/>
<text x="144" y="175" font-family="monospace" font-size="9" fill="#9cdcfe" text-anchor="middle">App.tsx</text>
<circle cx="174" cy="171" r="3" fill="#1e1e1e"/>

<!-- Line numbers -->
<rect x="102" y="182" width="22" height="196" fill="#1a1a1a"/>
<text x="113" y="200" font-family="monospace" font-size="10" fill="#444" text-anchor="middle">1</text>
<text x="113" y="215" font-family="monospace" font-size="10" fill="#444" text-anchor="middle">2</text>
<text x="113" y="230" font-family="monospace" font-size="10" fill="#444" text-anchor="middle">3</text>
<text x="113" y="245" font-family="monospace" font-size="10" fill="#444" text-anchor="middle">4</text>
<text x="113" y="260" font-family="monospace" font-size="10" fill="#444" text-anchor="middle">5</text>
<text x="113" y="275" font-family="monospace" font-size="10" fill="#A855F7" text-anchor="middle">6</text>
<text x="113" y="290" font-family="monospace" font-size="10" fill="#444" text-anchor="middle">7</text>
<text x="113" y="305" font-family="monospace" font-size="10" fill="#444" text-anchor="middle">8</text>
<text x="113" y="320" font-family="monospace" font-size="10" fill="#444" text-anchor="middle">9</text>
<text x="113" y="335" font-family="monospace" font-size="10" fill="#444" text-anchor="middle">10</text>
<text x="113" y="350" font-family="monospace" font-size="10" fill="#444" text-anchor="middle">11</text>

<!-- IDE Code -->
<text x="132" y="200" font-family="monospace" font-size="11" fill="#569cd6">import</text>
<text x="182" y="200" font-family="monospace" font-size="11" fill="#ce9178"> React </text>
<text x="222" y="200" font-family="monospace" font-size="11" fill="#569cd6">from</text>
<text x="253" y="200" font-family="monospace" font-size="11" fill="#ce9178"> 'react'</text>

<text x="132" y="215" font-family="monospace" font-size="11" fill="#569cd6">const</text>
<text x="172" y="215" font-family="monospace" font-size="11" fill="#9cdcfe"> App</text>
<text x="197" y="215" font-family="monospace" font-size="11" fill="#d4d4d4"> = () =&gt; (</text>

<text x="142" y="230" font-family="monospace" font-size="11" fill="#808080">&lt;</text>
<text x="150" y="230" font-family="monospace" font-size="11" fill="#4ec9b0">div</text>
<text x="174" y="230" font-family="monospace" font-size="11" fill="#9cdcfe"> className</text>
<text x="246" y="230" font-family="monospace" font-size="11" fill="#ce9178">="app"</text>
<text x="290" y="230" font-family="monospace" font-size="11" fill="#808080">&gt;</text>

<text x="152" y="245" font-family="monospace" font-size="11" fill="#A855F7">  &lt;Hero /&gt;</text>
<text x="152" y="260" font-family="monospace" font-size="11" fill="#EC4899">  &lt;Skills /&gt;</text>
<text x="152" y="275" font-family="monospace" font-size="11" fill="#60D394">  &lt;Projects /&gt;</text>
<text x="152" y="290" font-family="monospace" font-size="11" fill="#F7DF1E">  &lt;Contact /&gt;</text>
<text x="142" y="305" font-family="monospace" font-size="11" fill="#808080">&lt;/</text>
<text x="156" y="305" font-family="monospace" font-size="11" fill="#4ec9b0">div</text>
<text x="180" y="305" font-family="monospace" font-size="11" fill="#808080">&gt;</text>
<text x="132" y="320" font-family="monospace" font-size="11" fill="#d4d4d4">)</text>

<!-- Blinking cursor -->
<rect x="132" y="326" width="7" height="12" fill="#A855F7">
  <animate attributeName="opacity" values="1;1;0;0;1" dur="1.2s" repeatCount="indefinite"/>
</rect>

<!-- Status bar -->
<rect x="102" y="356" width="296" height="22" fill="#1e1e1e"/>
<circle cx="116" cy="367" r="4" fill="#60D394">
  <animate attributeName="opacity" values="1;0.4;1" dur="2s" repeatCount="indefinite"/>
</circle>
<text x="126" y="371" font-family="monospace" font-size="9" fill="#808080">main ● TypeScript JSX</text>
<text x="340" y="371" font-family="monospace" font-size="9" fill="#808080">Ln 12, Col 1</text>

<!-- Desk -->
<rect x="52" y="416" width="396" height="28" rx="5" fill="url(#deskGrad)"/>
<rect x="52" y="416" width="396" height="4" rx="2" fill="#A07850"/>

<!-- Keyboard -->
<rect x="152" y="410" width="196" height="16" rx="3" fill="#1a1a2e" stroke="#3d3d4a" stroke-width="1"/>
<rect x="160" y="413" width="14" height="7" rx="2" fill="#2d2d3a"/>
<rect x="178" y="413" width="14" height="7" rx="2" fill="#2d2d3a"/>
<rect x="196" y="413" width="14" height="7" rx="2" fill="#A855F7" opacity="0.7">
  <animate attributeName="opacity" values="0.7;1;0.7" dur="1.8s" repeatCount="indefinite"/>
</rect>
<rect x="214" y="413" width="14" height="7" rx="2" fill="#2d2d3a"/>
<rect x="232" y="413" width="14" height="7" rx="2" fill="#EC4899" opacity="0.7">
  <animate attributeName="opacity" values="0.7;1;0.7" dur="2.2s" repeatCount="indefinite"/>
</rect>
<rect x="250" y="413" width="14" height="7" rx="2" fill="#2d2d3a"/>
<rect x="268" y="413" width="14" height="7" rx="2" fill="#2d2d3a"/>
<rect x="286" y="413" width="14" height="7" rx="2" fill="#2d2d3a"/>
<rect x="168" y="421" width="160" height="4" rx="2" fill="#2d2d3a"/>

<!-- Mouse -->
<rect x="360" y="408" width="26" height="20" rx="7" fill="#1a1a2e" stroke="#3d3d4a" stroke-width="1"/>
<line x1="373" y1="408" x2="373" y2="420" stroke="#3d3d4a" stroke-width="1"/>
<rect x="362" y="411" width="10" height="7" rx="3" fill="#2d2d3a"/>

<!-- Coffee cup -->
<rect x="88" y="400" width="28" height="24" rx="4" fill="#2d2d3a" stroke="#3d3d4a" stroke-width="1"/>
<rect x="88" y="400" width="28" height="9" rx="4" fill="#A855F7" opacity="0.8"/>
<path d="M116 408 Q126 408 126 413 Q126 418 116 418" fill="none" stroke="#3d3d4a" stroke-width="1.5"/>
<!-- Steam -->
<path d="M96 398 Q98 392 96 386" fill="none" stroke="#fff" stroke-width="1" stroke-linecap="round">
  <animate attributeName="opacity" values="0.4;0;0.4" dur="2s" repeatCount="indefinite"/>
  <animateTransform attributeName="transform" type="translate" values="0,0;0,-5;0,0" dur="2s" repeatCount="indefinite"/>
</path>
<path d="M104 396 Q106 389 104 383" fill="none" stroke="#fff" stroke-width="1" stroke-linecap="round">
  <animate attributeName="opacity" values="0;0.4;0" dur="2s" repeatCount="indefinite"/>
  <animateTransform attributeName="transform" type="translate" values="0,0;0,-5;0,0" dur="2s" begin="0.5s" repeatCount="indefinite"/>
</path>

<!-- Floating tags bottom left -->
<g>
  <animateTransform attributeName="transform" type="translate" values="0,0;0,-7;0,0" dur="3.5s" repeatCount="indefinite" calcMode="spline" keySplines="0.45 0 0.55 1;0.45 0 0.55 1"/>
  <rect x="20" y="328" width="80" height="22" rx="11" fill="#1a1a2e" stroke="#EC4899" stroke-width="1.2"/>
  <text x="60" y="343" font-family="monospace" font-size="11" fill="#EC4899" text-anchor="middle">❤ Flutter</text>
</g>
<g>
  <animateTransform attributeName="transform" type="translate" values="0,0;0,7;0,0" dur="4s" repeatCount="indefinite" calcMode="spline" keySplines="0.45 0 0.55 1;0.45 0 0.55 1"/>
  <rect x="14" y="358" width="94" height="22" rx="11" fill="#1a1a2e" stroke="#60D394" stroke-width="1.2"/>
  <text x="61" y="373" font-family="monospace" font-size="11" fill="#60D394" text-anchor="middle">⚡ Supabase</text>
</g>

<!-- Floating tags bottom right -->
<g>
  <animateTransform attributeName="transform" type="translate" values="0,0;0,7;0,0" dur="3.8s" repeatCount="indefinite" calcMode="spline" keySplines="0.45 0 0.55 1;0.45 0 0.55 1"/>
  <rect x="402" y="328" width="82" height="22" rx="11" fill="#1a1a2e" stroke="#F7DF1E" stroke-width="1.2"/>
  <text x="443" y="343" font-family="monospace" font-size="11" fill="#F7DF1E" text-anchor="middle">★ Figma</text>
</g>
<g>
  <animateTransform attributeName="transform" type="translate" values="0,0;0,-7;0,0" dur="4.2s" repeatCount="indefinite" calcMode="spline" keySplines="0.45 0 0.55 1;0.45 0 0.55 1"/>
  <rect x="392" y="358" width="100" height="22" rx="11" fill="#1a1a2e" stroke="#A855F7" stroke-width="1.2"/>
  <text x="442" y="373" font-family="monospace" font-size="11" fill="#A855F7" text-anchor="middle">✦ Open Source</text>
</g>

<!-- Bottom label -->
<text x="250" y="490" font-family="monospace" font-size="11" fill="#555566" text-anchor="middle">joshh181 • always building</text>
</svg>
